<?xml version="1.0"?>
<svg width="410" height="410" xmlns="http://www.w3.org/2000/svg" xmlns:svg="http://www.w3.org/2000/svg" xmlns:xlink="http://www.w3.org/1999/xlink">
 <metadata>image/svg+xmlOpenclipart</metadata>
 <defs>
  <symbol id="svg_24" viewBox="0 0 128 128" xmlns="http://www.w3.org/2000/svg" xmlns:svg="http://www.w3.org/2000/svg" xmlns:xlink="http://www.w3.org/1999/xlink">
   <defs>
    <linearGradient id="svg_23">
     <stop offset="0" stop-color="#fff"/>
     <stop offset="1" stop-color="#fff" stop-opacity="0"/>
    </linearGradient>
    <linearGradient id="svg_22">
     <stop offset="0"/>
     <stop offset="1" stop-opacity="0"/>
    </linearGradient>
    <linearGradient gradientTransform="matrix(.1 .1 -.22 .2 75.6 -33.53)" gradientUnits="userSpaceOnUse" id="svg_7" x1="637.03" x2="638.3" xlink:href="#svg_23" y1="69.99" y2="118.3"/>
    <linearGradient gradientTransform="matrix(.0807 .0775 -.35 .36 77.14 -45.89)" gradientUnits="userSpaceOnUse" id="svg_10" x1="512.7" x2="615.59" xlink:href="#svg_23" y1="254.36" y2="254.83"/>
    <linearGradient gradientTransform="matrix(.0998 .0998 -.28 .28 78.84 -44.8)" gradientUnits="userSpaceOnUse" id="svg_11" x1="543.1" x2="419.88" xlink:href="#svg_22" y1="286.56" y2="286.56"/>
    <linearGradient gradientTransform="matrix(.33 .33 -.0944 .0944 9.03 -48.1)" gradientUnits="userSpaceOnUse" id="svg_12" x1="258.96" x2="258.96" xlink:href="#svg_23" y1="62.74" y2="-1.72"/>
    <linearGradient gradientTransform="matrix(.3 .3 -.09 .09 78.84 -44.8)" gradientUnits="userSpaceOnUse" id="svg_13" x1="146.15" x2="146.15" xlink:href="#svg_23" y1="288.57" y2="368.27"/>
    <linearGradient gradientTransform="matrix(.0775 .0775 -.36 .36 78.84 -44.8)" gradientUnits="userSpaceOnUse" id="svg_14" x1="577.03" x2="626.1" xlink:href="#svg_23" y1="124" y2="124"/>
    <linearGradient gradientTransform="matrix(1.05 0 0 1.05 .13 -140.54)" id="svg_15" x1="75.1" x2="71.77" xlink:href="#svg_22" y1="189.14" y2="185.8"/>
    <linearGradient gradientTransform="matrix(.2 0 0 .2 -80.94 88.3)" gradientUnits="userSpaceOnUse" id="svg_18" x1="646.24" x2="607.66" xlink:href="#svg_23" y1="-252.6" y2="-186.26"/>
    <linearGradient gradientTransform="matrix(.26 0 0 .26 -106.57 101.57)" gradientUnits="userSpaceOnUse" id="svg_19" x1="550.96" x2="655.42" xlink:href="#svg_23" y1="-137.5" y2="-241.2"/>
    <linearGradient gradientTransform="translate(-.30267 -3.2014)" gradientUnits="userSpaceOnUse" id="svg_16" x1="73.88" x2="84.3" xlink:href="#svg_22" y1="66.2" y2="86.68"/>
    <clipPath clipPathUnits="userSpaceOnUse" id="svg_20">
     <path d="m22.42,17.2l12.96,12.95l-2.5,8.78l-8.78,2.5l-12.96,-12.96l-5.86,5.86l14.89,21.46l17.56,-3.34l61.63,65.62c9.44,9.51 22.17,-4.75 13.34,-12.87l-65.85,-62.28l4.01,-17.76l-22.14,-14.27l-6.3,6.31zm81.06,91.97c1.68,-1.68 4.4,-1.68 6.08,0s1.68,4.4 0,6.08c-1.68,1.67 -4.4,1.67 -6.08,0c-1.68,-1.68 -1.68,-4.4 0,-6.08z" id="svg_21"/>
    </clipPath>
    <clipPath clipPathUnits="userSpaceOnUse" id="svg_8">
     <path d="m55.8,12l0.76,0.16c8.84,-2.94 28.68,8.64 24.26,18.96c-1.12,1.62 -0.93,4.5 0.42,6.31l-24.81,24.82c-1.39,-1.39 -4.48,-1.36 -5.9,0l-41.03,39.38c-3.74,3.59 -0.8,6.64 0.78,8.25l7.36,7.36c1.61,1.6 5.86,3.76 8.88,0.56l38.72,-40.81c1.35,-1.42 1.36,-4.47 0,-5.87c0,0 0.01,-0.02 0,-0.02l24.91,-24.9c2.63,2.37 5.114,2.575 7.47,1.93c4.55,-1.245 7.09,3.207 9.81,6.46l-1.23,1.21c-1.82,1.84 -1.65,4.94 0.39,6.98s5.15,2.21 6.97,0.39l8.14,-8.13c1.82,-1.84 1.65,-4.94 -0.4,-6.97c-1.84,-1.85 -4.51,-2.09 -6.37,-0.77c-5.58,-6.26 -2.65,-7.2 -10.01,-15.35l-13.79,-14.09c-9.93,-9.74 -22.83,-9.73 -35.33,-5.86z" id="svg_9"/>
    </clipPath>
   </defs>
   <style type="text/css">/* Specular Highlighting */
		.low-specularity	{opacity:0.25;}
		.specularity		{opacity:0.5;}
		.high-specularity	{opacity:0.75;}
		.full-specularity	{opacity:1;}
	/* Shading */
		.low-shade	{opacity:0.25;}
		.shade		{opacity:0.5;}
		.high-shade	{opacity:0.75;}
		.full-shade	{opacity:1;}
	/* Tango palette fill/stroke */
		.black		{fill:#000;}
		.aluminium1	{fill:#eeeeec;}
		.aluminium2	{fill:#d3d7cf;}
		.aluminium6	{fill:#2e3436;}
		.chocolate3	{fill:#8f5902;}
		.chocolate2	{fill:#c17d11;}
		.aluminium4	{fill:#888a85;}
	/* Shadows: Back-Shadows &amp; Base Shadows */
		.base-shadow	{opacity:0.4;}
		.outline-big	{stroke:black;stroke-width:8;opacity:0.25;stroke-linejoin:round;}
		.outline-small	{stroke:black;stroke-width:4;opacity:0.5;stroke-linejoin:round;}
		.stroke-highlight	{fill:none;stroke:white;stroke-opacity:0.2;stroke-width:4;stroke-linejoin:round;}</style>
   <g id="svg_5">
    <g id="svg_17">
     <use class="outline-big" xlink:href="#svg_21"/>
     <use class="outline-small" xlink:href="#svg_21"/>
     <use class="aluminium4" xlink:href="#svg_21"/>
     <use class="stroke-highlight" clip-path="url(#svg_20)" xlink:href="#svg_21"/>
     <path class="high-specularity" d="m24.33,15.4l13.45,13.38l-3.33,11.69l-10.95,3.27l-13.568,-13.74l-4.732,4.54l14.2,19.94l18.9,-4.14l62.5,66.36c7.5,8.3 20.2,-2.67 11.14,-11.6l-66.9,-63.1l3.86,-17.17l-19.96,-14.03l-4.61,4.6zm79.97,93.3c1.67,-1.67 4.63,-2 6.3,-0.3c1.7,1.67 3.06,4.63 0.65,7.84c-2,2 -5.2,1.92 -7.2,-0.24c-1.68,-1.68 -1.45,-5.6 0.25,-7.3z" fill="url(#svg_19)"/>
     <path class="specularity" d="m24.2,15.42l23.47,23.65l3.22,-13.87l-22.1,-14.4l-4.59,4.62z" fill="url(#svg_18)"/>
    </g>
    <path class="low-shade" d="m70.739,65.52l4.631,4.28c0.38,4.32 -0.73,5.62 -7.83,11.64l-8.6,-9.22l11.79,-6.7l0.009,0z" fill="url(#svg_16)"/>
    <g id="svg_6">
     <use class="outline-big" xlink:href="#svg_9"/>
     <use class="outline-small stroke-aluminium5" xlink:href="#svg_9"/>
     <path class="aluminium2" d="m82.92,35.75l-29.45,29.45l8.83,8.83l29.45,-29.44l-8.83,-8.84z"/>
     <path class="specularity" d="m88.93,41.76l-29.45,29.44l2.82,2.83l29.45,-29.44l-2.82,-2.83z" fill="url(#svg_15)"/>
     <path d="m86.46,37.04l-29.33,29.33l3.79,3.79l28.58,-30.08l-3.04,-3.04z" fill="url(#svg_14)"/>
     <path class="aluminium6" d="m55.8,12l0.76,0.16c8.84,-2.94 28.68,8.64 24.26,18.96c-1.12,1.62 -0.93,4.5 0.42,6.31l8.91,8.77c2.63,2.37 5.11,2.57 7.47,1.93c4.55,-1.23 7.08,3.2 9.81,6.46l-1.23,1.21c-1.82,1.84 -1.65,4.94 0.39,6.98s5.15,2.21 6.97,0.39l8.14,-8.13c1.82,-1.84 1.65,-4.94 -0.4,-6.97c-1.84,-1.85 -4.51,-2.09 -6.37,-0.77c-5.58,-6.26 -2.65,-7.2 -10.01,-15.35l-13.79,-14.09c-9.93,-9.74 -22.83,-9.73 -35.33,-5.86z"/>
     <path class="specularity" d="m114.93,47.3c-5.58,-6.26 -2.65,-7.2 -10.01,-15.35l-13.79,-14.09c-5.69,-5.58 -12.36,-7.96 -19.36,-8.26l41.13,41.53l2.98,-2.73l-0.95,-1.1z" fill="url(#svg_13)"/>
     <path class="low-specularity" d="m81.45,28c0.05,1 -0.179,2 -0.65,3.12c-1.1,1.62 -0.91,4.5 0.44,6.31l8.91,8.77c2.63,2.37 5.11,2.57 7.47,1.93c1.08,-0.33 2.06,-0.27 2.98,0c2.8,0.77 -19.16,-20.55 -19.15,-20.23l0,0.1z" fill="url(#svg_12)"/>
     <path d="m56.43,62.25c-1.39,-1.39 -4.48,-1.36 -5.9,0l-41.03,39.38c-3.74,3.59 -0.82,6.64 0.78,8.25l7.36,7.36c1.61,1.6 5.86,3.76 8.88,0.56l38.72,-40.81c1.35,-1.42 1.36,-4.47 0,-5.87c0,0 0.01,-0.02 0,-0.02l-8.81,-8.85z" fill="#3465a4"/>
     <path class="low-shade" d="m10.27,109.87l7.36,7.37c1.61,1.6 5.73,3.89 8.75,0.71l38.87,-40.97c1.35,-1.43 1.39,-4.5 0,-5.88l-8.83,-8.84l-46.15,47.61z" fill="url(#svg_11)"/>
     <path class="specularity" d="m51.2,65.7l-38.88,38.04c-1.62,1.56 -1.07,3.75 0.1,4.89l4.13,3.97l42.37,-43.6l-3.92,-3.68c-0.84,-0.8 -2.8,-0.57 -3.8,0.38z" fill="url(#svg_10)"/>
     <use class="stroke-highlight" clip-path="url(#svg_8)" xlink:href="#svg_9"/>
     <path d="m120.45,49.26c1.51,1.44 1.8,3.44 -0.28,5.36l-3.87,3.63c-2.08,1.95 -7.52,-3.25 -5.45,-5.19l3.88,-3.63c2.07,-1.95 4.21,-1.61 5.72,-0.17z" fill="url(#svg_7)"/>
    </g>
   </g>
   <metadata>image/svg+xmlOpenclipartTools, Hammer, Spanner2006-08-29T17:16:52A very glossy yet socialist looking hammer and spanner ;-)\n\n[b]\nContains internal stylesheet with configurable specularity, shade outlines and internal stroke-highlights.[/b]http://openclipart.org/detail/67/tools-hammer-spanner-by-andyAndybuildclip artclipartcolourconfigcontourdevelopglossyhammerhardwareiconlogosettingshinyspannertoolwork</metadata>
  </symbol>
 </defs>
 <g class="layer">
  <title>Layer 1</title>
  <g id="layer1">
   <path d="m170.87,389.140015l9.7801,-15.68l2.7932,0.4094c6.7103,0.9836 14.376,1.5315 21.5,1.5369c6.9458,0 9.7263,-0.1863 21.773,-1.4988l3.6799,-0.4009l9.0183,14.61c4.9599,8.0356 9.3917,15.12 9.8484,15.743c0.7997,1.0909 1.0998,1.0602 8.147,-0.8333c9.9549,-2.6747 21.658,-6.7963 31.384,-11.053c10.684,-4.6761 26.554,-13.377 26.545,-14.554c0,-0.2488 -1.8899,-8.3842 -4.1957,-18.079l-4.1922,-17.627l6.1889,-5.0411c7.7194,-6.2876 18.256,-16.832 24.25,-24.266c2.5122,-3.1162 4.9606,-5.6659 5.4408,-5.6659c0.4803,0 8.5761,1.794 17.991,3.9866c9.4146,2.1927 17.229,3.9867 17.364,3.9867c0.6562,0 7.029,-11.441 11.345,-20.367c5.8223,-12.042 10.109,-23.404 13.476,-35.725c1.9321,-7.0682 2.33,-9.2795 1.7342,-9.6407c-0.4252,-0.25778 -7.535,-4.6949 -15.8,-9.8602c-11.99,-7.4939 -14.998,-9.6356 -14.886,-10.599c1.88,-16.199 1.7976,-37.2 -0.1843,-46.977c-0.3094,-1.5264 0.4576,-2.0978 14.819,-11.04c8.33,-5.1866 15.437,-9.6184 15.794,-9.8485c1.3566,-0.87495 -4.3743,-20.435 -9.99,-34.097c-4.0447,-9.8398 -12.989,-27.371 -16.257,-31.863c-0.055,-0.0761 -8.2264,1.7954 -18.158,4.159l-18.057,4.2974l-1.84,-2.309c-8.9557,-11.239 -18.167,-20.534 -28.98,-29.245c-2.4456,-1.9702 -4.4466,-3.6818 -4.4466,-3.8036c0,-0.12187 1.794,-7.9431 3.9866,-17.38c2.1927,-9.4373 3.9867,-17.561 3.9867,-18.053c0,-1.7271 -18.082,-11.504 -31.407,-16.981c-13.568,-5.5772 -33.221,-11.348 -34.108,-10.015c-0.23,0.34579 -4.6629,7.4545 -9.8508,15.797c-6.1322,9.8609 -9.7123,15.061 -10.232,14.862c-0.4396,-0.16873 -5.9443,-0.6513 -12.233,-1.0724c-9.1808,-0.6148 -13.63,-0.61259 -22.581,0.0111c-6.1313,0.4273 -11.849,0.91699 -12.706,1.0881c-1.4587,0.29134 -2.16,-0.66141 -10.983,-14.92c-5.1838,-8.377 -9.6213,-15.457 -9.8612,-15.733c-0.9827,-1.1312 -20.802,4.6878 -33.332,9.7863c-13.335,5.426 -32.257,15.65 -32.271,17.437c-0.01,0.52864 1.7865,8.493 3.9792,17.699c2.1926,9.2056 3.9866,17.077 3.9866,17.493c0,0.41553 -2.2769,2.514 -5.06,4.6632c-6.5094,5.027 -20.55,19.068 -25.577,25.577c-2.1493,2.783 -4.3461,5.0557 -4.8818,5.0505c-0.5357,-0.006 -8.7021,-1.7835 -18.147,-3.9518l-17.173,-3.9422l-1.0418,1.3451c-1.8508,2.3899 -8.9415,15.271 -12.051,21.892c-4.2341,9.0156 -8.7704,21.493 -11.704,32.192c-1.3731,5.008 -2.4965,9.2894 -2.4965,9.5144c0,0.22498 7.0568,4.802 15.682,10.171l15.682,9.7621l-0.3681,3.68c-1.6428,16.424 -1.5807,30.111 0.1939,42.751l0.491,3.4981l-12.62,7.8171c-6.941,4.2994 -14.05,8.7245 -15.798,9.8336l-3.1777,2.0165l2.066,7.8282c2.7819,10.541 7.0881,22.751 11.33,32.126c3.5873,7.9292 11.007,21.498 13.2,24.138l1.2267,1.4772l17.787,-4.2316l17.787,-4.2316l1.5334,1.9496c8.3276,10.588 19.1,21.55 28.675,29.177c3.3035,2.6317 4.9694,4.3619 4.7959,4.9809c-0.828,2.9543 -7.7109,33.854 -7.7109,34.616c0,1.8183 20.233,12.64 33.12,17.715c9.9965,3.9364 27.987,9.4902 30.973,9.5616c0.9506,0.023 3.4275,-3.4991 11.007,-15.651l-0.0022,0.001zm16.613,-46.558c-46.751,-6.3622 -86.28,-34.575 -106.5,-76.015c-10.372,-21.253 -14.31,-38.23 -14.299,-61.64c0.011,-23.477 3.7469,-39.693 14.111,-61.253c6.6666,-13.868 13.94,-24.152 25.36,-35.86c22.308,-22.869 52.258,-37.466 83.943,-40.911c8.7981,-0.95673 29.532,-0.44779 37.532,0.92123c38.597,6.6052 72.914,29.006 93.995,61.357c7.6785,11.783 15.552,30.325 18.751,44.16c7.2661,31.423 3.2943,65.059 -11.078,93.816c-20.91,41.837 -61.455,70.015 -109,75.756c-7.1376,0.86176 -25.399,0.67763 -32.809,-0.33082l-0.006,-0.00041zm80.351,-47.522c1.122,-1.2398 1.0212,-1.3673 -9.1049,-11.507c-8.6538,-8.665 -10.24,-10.536 -10.24,-12.078c0,-1.5268 1.3784,-3.2065 8.4251,-10.267c11.308,-11.329 9.7106,-11.448 22.882,1.7058c10.127,10.114 10.164,10.143 11.308,8.8792c1.1263,-1.2446 1.0933,-1.4731 -1.8015,-12.447l-2.9488,-11.179l-5.8527,-5.9452l-5.8528,-5.9452l-11.086,-2.5889l-11.086,-2.5889l-34.988,-34.88l-34.988,-34.88l-2.0166,-8.4123c-3.6986,-15.429 -3.0032,-13.99 -9.784,-20.247l-6.0508,-5.5833l-10.98,-3.0674c-10.882,-3.0403 -10.99,-3.0569 -12.186,-1.8743c-1.1977,1.1845 -1.1321,1.268 9.0465,11.511c8.5669,8.6206 10.253,10.612 10.253,12.109c0,1.4862 -1.4878,3.2819 -8.7321,10.539c-6.5857,6.5975 -9.1092,8.7476 -10.267,8.7476c-1.1664,0 -3.9871,-2.4492 -11.756,-10.208c-10.232,-10.219 -11.565,-11.117 -12.577,-8.4792c-0.2041,0.53198 0.9416,6.0298 2.546,12.217l2.9174,11.25l5.901,5.8306l5.9012,5.8306l11.154,2.6192l11.154,2.6192l34.888,35.007l34.888,35.007l2.5979,11.157l2.5979,11.157l6.1405,5.6614l6.1403,5.6614l10.539,2.9198c5.7966,1.6059 10.841,2.9386 11.211,2.9616c0.3693,0.023 1.1821,-0.52235 1.8062,-1.2119l0.0012,-0.0008zm-114.41,-7.4025c3.5896,-1.6609 6.2163,-4.0692 26.371,-24.177l22.384,-22.332l-3.6479,-3.6864l-3.648,-3.6864l-9.31,9.1893c-8.476,8.3659 -9.5051,9.1893 -11.485,9.1893c-1.6193,0 -2.5,-0.41297 -3.4463,-1.616c-2.6668,-3.3902 -2.0176,-4.5407 8.6132,-15.263l8.5256,-8.5994l-3.8383,-3.7798l-3.8384,-3.7798l-9.6371,9.1592c-10.391,9.8756 -11.546,10.504 -14.397,7.8256c-0.9599,-0.90174 -1.4196,-2.0293 -1.4196,-3.482c0,-1.9482 0.8571,-3.012 9.1973,-11.415l9.1971,-9.2665l-3.6852,-3.6468l-3.6853,-3.6468l-22.096,22.069c-24.136,24.106 -25.093,25.317 -26.468,33.478c-0.9612,5.7081 0.077,9.9737 3.55,14.594c2.9659,3.9455 8.952,9.7349 12.459,12.05c5.6371,3.7206 13.365,4.0341 20.304,0.82364l0.0009,-0.00114zm71.146,-105.42l-21.16,-20.766l-2.9234,2.8533l-2.9232,2.8533l21.011,21.018l21.011,21.018l3.072,-3.105l3.0719,-3.105l-21.1593,-20.7666zm25.617,-15.806l15.337,-15.799l7.2765,-2.3785l7.2766,-2.3785l6.4057,-9.3194c3.5232,-5.1257 6.4998,-9.6019 6.6149,-9.9472c0.1151,-0.34527 -2.8269,-3.4495 -6.5379,-6.8983l-6.7471,-6.2705l-9.4706,6.788l-9.4706,6.788l-2.3571,6.7515l-2.3572,6.7515l-16.095,16.094l-16.095,16.094l4.7343,4.7622c2.6039,2.6192 5.0528,4.7623 5.4421,4.7623s7.6093,-7.1096 16.044,-15.799l-0.0006,-0.0011z" fill="#2c5489" id="path3919"/>
  </g>
  <circle cx="209.999997" cy="202.499996" fill="#fffcfc" id="svg_2" r="118.344879" stroke="#000000" stroke-width="0"/>
  <use fill="#4d4db7" id="svg_25" transform="matrix(0.477319 0 0 0.556086 32.7582 194.976)" x="151.726701" xlink:href="#svg_24" y="-188.448296"/>
  <g id="svg_26"/>
 </g>
</svg>